<?xml version="1.0" encoding="UTF-8"?>
<svg xmlns="http://www.w3.org/2000/svg" xmlns:xlink="http://www.w3.org/1999/xlink" width="54px" height="44px" viewBox="0 0 44 44" version="1.1">
<g id="surface1">
<path style=" stroke:none;fill-rule:nonzero;fill:rgb(25.098039%,75.294118%,90.588235%);fill-opacity:1;" d="M 37.632812 5.617188 L 29.164062 5.617188 C 28.722656 5.617188 28.363281 5.972656 28.363281 6.417969 L 28.363281 18.886719 L 15.640625 18.886719 L 15.640625 6.421875 C 15.640625 5.976562 15.28125 5.621094 14.835938 5.621094 L 6.371094 5.621094 C 5.925781 5.621094 5.566406 5.976562 5.566406 6.421875 L 5.566406 40.78125 C 5.566406 41.226562 5.925781 41.582031 6.371094 41.582031 L 14.835938 41.582031 C 15.277344 41.582031 15.640625 41.226562 15.640625 40.78125 L 15.640625 26.175781 L 28.367188 26.175781 L 28.367188 40.777344 C 28.367188 41.222656 28.726562 41.578125 29.167969 41.578125 L 37.636719 41.578125 C 38.082031 41.578125 38.4375 41.21875 38.4375 40.777344 L 38.4375 6.421875 C 38.4375 5.976562 38.078125 5.617188 37.632812 5.617188 Z M 37.632812 5.617188 "/>
</g>
</svg>
